<svg width="36" height="33" viewBox="0 0 36 33" fill="none" xmlns="http://www.w3.org/2000/svg">
<path d="M18.0005 0.361572C8.38026 0.361572 0.553711 7.60121 0.553711 16.4999C0.553711 25.3986 8.38026 32.6382 18.0005 32.6382C22.1635 32.6382 26.1974 31.2537 29.3592 28.7395C29.6266 28.527 29.657 28.1542 29.4272 27.9069C29.4244 27.9039 29.4213 27.9014 29.4185 27.8985C29.1873 27.6594 28.7912 27.6341 28.527 27.8441C25.5967 30.1741 21.8583 31.4573 18.0005 31.4573C9.08426 31.4573 1.83031 24.7474 1.83031 16.4999C1.83031 8.25233 9.08426 1.54242 18.0005 1.54242C26.9168 1.54242 34.1707 8.25233 34.1707 16.4999C34.1707 20.0683 32.7835 23.5263 30.2645 26.2369C30.0375 26.4812 30.0649 26.8477 30.3233 27.0616C30.3265 27.0642 30.3292 27.067 30.3324 27.0696C30.5999 27.2821 31.0028 27.254 31.2326 27.0068C33.9506 24.082 35.4473 20.3506 35.4473 16.4999C35.4473 7.60121 27.6208 0.361572 18.0005 0.361572Z" fill="#C7C7C7"/>
<path d="M18.0005 0.361572C8.38026 0.361572 0.553711 7.60121 0.553711 16.4999C0.553711 25.3986 8.38026 32.6382 18.0005 32.6382C22.1635 32.6382 26.1974 31.2537 29.3592 28.7395C29.6266 28.527 29.657 28.1542 29.4272 27.9069C29.4244 27.9039 29.4213 27.9014 29.4185 27.8985C29.1873 27.6594 28.7912 27.6341 28.527 27.8441C25.5967 30.1741 21.8583 31.4573 18.0005 31.4573C9.08426 31.4573 1.83031 24.7474 1.83031 16.4999C1.83031 8.25233 9.08426 1.54242 18.0005 1.54242C26.9168 1.54242 34.1707 8.25233 34.1707 16.4999C34.1707 20.0683 32.7835 23.5263 30.2645 26.2369C30.0375 26.4812 30.0649 26.8477 30.3233 27.0616C30.3265 27.0642 30.3292 27.067 30.3324 27.0696C30.5999 27.2821 31.0028 27.254 31.2326 27.0068C33.9506 24.082 35.4473 20.3506 35.4473 16.4999C35.4473 7.60121 27.6208 0.361572 18.0005 0.361572Z" fill="url(#paint0_linear)"/>
<defs>
<linearGradient id="paint0_linear" x1="18.0005" y1="0.361572" x2="18.0005" y2="32.6382" gradientUnits="userSpaceOnUse">
<stop stop-color="white"/>
<stop offset="1" stop-color="white" stop-opacity="0"/>
</linearGradient>
</defs>
</svg>
